<svg xmlns="http://www.w3.org/2000/svg" viewBox="0 0 360 268.98"><defs><style>.cls-1{fill:#2973b3;}.cls-2{fill:#dd2514;}</style></defs><g id="Layer_2" data-name="Layer 2"><g id="Layer_1-2" data-name="Layer 1"><path class="cls-1" d="M32.61,167.06c12-3.25,23.45-8.05,35.17-12.08,20.08-6.91,40-14.12,60.08-21.13,2.3-.8,3.79-1.76,4.54-4.41a14.86,14.86,0,0,1,11.48-10.74c2.17-.51,2.56-1.34,2.56-3.28q-.08-39,0-78c0-2-.63-3-2.61-3.46a14.86,14.86,0,0,1-10.46-8.34c-1.21-2.54-2.53-2.25-4.41-1.45q-15,6.33-30,12.66Q68.31,49.65,37.7,62.44c-2.34,1-3.7,1.77-3.26,5.15,1.19,9.32-6.84,17.6-16.84,18.15A16.83,16.83,0,0,1,0,69.7c-.27-8.64,3.36-14.53,10.64-17.3,7.59-2.89,14.92-1,20.24,5.58,1.71,2.14,2.94.72,4.24.17Q72.82,42.4,110.49,26.53c5.42-2.27,10.83-4.62,16.37-6.57,2.86-1,4.12-2.46,4.69-5.5C133.46,4.25,141.88-1.46,151.81.32c7.73,1.39,12.9,7.05,13.95,15.28A16.37,16.37,0,0,1,155.4,33.09c-3.37,1.31-4.2,3-4.18,6.39.16,25,.12,50,0,75,0,2.69.59,3.9,3.44,4.66,7.09,1.86,11.3,8.51,11.08,16.5-.23,8.27-4.44,14.2-11.73,16-2.2.55-2.79,1.46-2.78,3.64q.11,38.06,0,76.12c0,1.8.14,3.06,2.24,3.73,6.25,2,10.91,5.68,11.82,12.69.2,1.55,1.16,1.4,2.17,1.4,8.32,0,16.65,0,25,0,1.36,0,2-.38,2.36-1.81,1.53-6.81,6.06-10.83,12.56-12.66,1.71-.48,1.85-1.29,1.85-2.68q0-39.4,0-78.81c0-2-.76-2.5-2.47-3-7.69-2.28-12.3-8.5-12.46-16.51s4.14-14,12.18-16.56c2.11-.67,2.76-1.6,2.75-3.76q-.1-37.86,0-75.73c0-2.38-.81-3.23-3-3.93a17.09,17.09,0,0,1-12.21-16.37,16.94,16.94,0,0,1,11.38-16.2,17.14,17.14,0,0,1,19.77,5.23,15,15,0,0,1,3.28,13c-.7,3.64.39,5.67,3.74,7.58,31.12,17.75,62.13,35.72,93.17,53.63,1.11.64,2.18,1.35,3.26,2-.7,1.23-1.4,2.46-2.09,3.69a30,30,0,0,1-7.24-3.48Q305.75,75,292.19,67c-21-12.43-42.16-24.73-63.46-36.7-2.26-1.27-4-1.81-6,.39a10.53,10.53,0,0,1-6.09,3c-2.28.4-2.73,1.64-2.73,3.75q.09,37.86,0,75.71c0,2.39.81,3.3,3,4,5,1.58,9.36,4.38,10.59,9.67,1.07,4.59,3.24,4,6.49,2.87q45.69-16.32,91.41-32.51a6.2,6.2,0,0,1,1.67,4.2Q280.83,118,234.61,134.55c-3.51,1.25-6.26,2.66-7.56,6.69-1.56,4.79-5.6,7.56-10.38,8.9-2.06.57-2.79,1.37-2.78,3.62.1,25.87.06,51.75.07,77.63,0,1.5-.33,2.92,2,3.32,4.73.81,8.12,3.81,10.26,7.95,1.47,2.85,3,2.83,5.7,1.68q45-19.11,90.15-37.94c2.77-1.16,3.78-2.26,3.44-5.48a16.15,16.15,0,0,1,11-17.43,17.19,17.19,0,0,1,20.2,5.93,17.6,17.6,0,0,1-.42,21.11c-6.43,8.25-19.87,8.67-26.61.6-1.83-2.19-3.38-1.22-5-.54-9.21,3.82-18.36,7.77-27.56,11.64-22,9.27-44,18.57-66.14,27.73-2.07.86-2.1,2.27-2.29,3.89-.89,7.38-4.92,12.28-12,14.43a18.07,18.07,0,0,1-19-6.07c-.78-1-1.79-2.12-1.93-3.27-.57-4.94-3.6-5.32-7.72-5.11-6.52.33-13.06.14-19.6.06-1.87,0-2.8.23-3.32,2.46-2.16,9.12-11.06,14.11-20.89,12a16.27,16.27,0,0,1-12.62-19c.79-3.79-.47-5.12-3.5-6.86-30.5-17.56-60.87-35.32-91.29-53-1.88-1.09-3.85-2-5.78-3,.09-2,.45-3.78,2.76-4.34l57.08,33.13c13.16,7.64,26.39,15.18,39.47,23,3.18,1.89,5.69,2.36,8.34-.64a8,8,0,0,1,5-2.69c2.32-.27,2.79-1.37,2.78-3.52q-.1-37.85,0-75.69c0-2.35-.72-3.39-3-4A15.1,15.1,0,0,1,132,140c-.56-2.27-1.19-2.36-3.21-1.63q-30,10.74-60,21.27-17.16,6.06-34.34,12.07A5.82,5.82,0,0,1,32.61,167.06Z"/><path class="cls-2" d="M326.64,86.32c.69-1.23,1.39-2.46,2.09-3.69,5.08-4.81,10.77-7.74,18-5.91,8.06,2,13.06,8.54,13.14,17.13.07,8-4.4,14-12,16.16-8.3,2.31-16-.6-20.21-7.61l-.6-1a6.2,6.2,0,0,0-1.67-4.2A29.84,29.84,0,0,1,326.64,86.32Z"/><path class="cls-2" d="M33.79,182.13c-2.31.56-2.67,2.36-2.76,4.34-4.41,4.64-9.66,7-16.18,6-7.7-1.18-13.28-6.82-14.56-14.77A17.16,17.16,0,0,1,9.77,160c7.18-3.54,14.49-2.27,20,3.52,1.05,1.11,1.91,2.39,2.86,3.59a5.82,5.82,0,0,0,1.86,4.67C34.24,175.2,34,178.66,33.79,182.13Z"/></g></g></svg>