<svg xmlns="http://www.w3.org/2000/svg" viewBox="0 0 111.32 50.84"><defs><style>.cls-1{fill:#54db2e;}.cls-2{fill:#231f20;}</style></defs><title>nexLoop-0 short</title><g id="Layer_2" data-name="Layer 2"><g id="Layer_1-2" data-name="Layer 1"><path class="cls-1" d="M65.52,40.12h-.09A14.78,14.78,0,0,1,50.78,25.3,25.58,25.58,0,0,0,25.48,0,25.48,25.48,0,0,0,0,25.3,25.63,25.63,0,0,0,25.48,50.78a24.66,24.66,0,0,0,16.24-6.07,30.75,30.75,0,0,1-5.27-9.48A14.68,14.68,0,0,1,10.83,25.3a14.65,14.65,0,0,1,29.3,0c0,13.3,11.09,25.48,25.3,25.48h.09Z"/><path class="cls-1" d="M65.43,10.65A14.79,14.79,0,0,1,80.25,25.3v.09H90.9s0-.06,0-.09A25.48,25.48,0,0,0,65.43,0,24.69,24.69,0,0,0,49.18,6.07a30.3,30.3,0,0,1,5.27,9.48A14.83,14.83,0,0,1,65.43,10.65Z"/><path class="cls-2" d="M107.71,31.3h3.61l-7.68,19.2H99.72L92,31.3h3.61l6,15.59Z"/><path class="cls-2" d="M74.24,42.44a6.23,6.23,0,0,0,2.32,3.92,7.2,7.2,0,0,0,4.5,1.39A5.9,5.9,0,0,0,86.48,45l2.79,1.58A9.2,9.2,0,0,1,81,50.84,9.86,9.86,0,0,1,73.7,48a9.62,9.62,0,0,1-2.81-7.1,9.78,9.78,0,0,1,2.75-7.08A9.51,9.51,0,0,1,80.76,31,8.66,8.66,0,0,1,87.52,34a10.16,10.16,0,0,1,2.62,7A9.3,9.3,0,0,1,90,42.44Zm6.52-8.32a6.25,6.25,0,0,0-6.52,5.46H86.82a6.31,6.31,0,0,0-2.11-4.07A6,6,0,0,0,80.76,34.12Z"/></g></g></svg>